<svg width="14" height="14" viewBox="0 0 14 14" fill="none" xmlns="http://www.w3.org/2000/svg">
<path fill-rule="evenodd" clip-rule="evenodd" d="M11.1108 13.2238C11.357 13.0388 11.411 12.7344 11.2609 12.3047L10.0061 8.58649L13.2121 6.30066C13.5844 6.03806 13.7345 5.75755 13.6384 5.46511C13.5424 5.17267 13.2602 5.02943 12.7979 5.0354L8.86538 5.06524L7.67062 1.32914C7.52652 0.893456 7.31039 0.666664 6.99819 0.666664C6.69199 0.666664 6.47586 0.893456 6.33177 1.32914L5.13701 5.06524L1.2045 5.0354C0.742211 5.02943 0.460031 5.17267 0.36397 5.46511C0.261905 5.75755 0.418005 6.03806 0.790241 6.30066L3.99628 8.58649L2.74148 12.3047C2.59139 12.7344 2.64542 13.0388 2.89158 13.2238C3.13773 13.4148 3.44993 13.3491 3.82217 13.0806L6.99819 10.7589L10.1802 13.0806C10.5524 13.3491 10.8586 13.4148 11.1108 13.2238Z" fill="#FFAA0D"/>
</svg>
