<svg width="20" height="20" viewBox="0 0 20 20" fill="none" xmlns="http://www.w3.org/2000/svg">
<path fill-rule="evenodd" clip-rule="evenodd" d="M13.5563 18.3334C14.6643 18.3334 15.4081 17.6374 15.4623 16.5672L15.9969 5.68555H16.9267C17.2443 5.68555 17.5 5.42361 17.5 5.11677C17.5 4.80993 17.2443 4.55548 16.9267 4.55548H13.3858V3.43289C13.3858 2.35521 12.6343 1.66669 11.4411 1.66669H8.54339C7.35021 1.66669 6.6064 2.35521 6.6064 3.43289V4.55548H3.07335C2.76343 4.55548 2.5 4.81741 2.5 5.11677C2.5 5.42361 2.76343 5.68555 3.07335 5.68555H4.01085L4.54545 16.5746C4.59969 17.6448 5.328 18.3334 6.45145 18.3334H13.5563ZM12.1539 4.55548H7.84607V3.50773C7.84607 3.08115 8.16374 2.78179 8.63636 2.78179H11.3559C11.8285 2.78179 12.1539 3.08115 12.1539 3.50773V4.55548ZM13.4323 17.2033H6.55992C6.11829 17.2033 5.78512 16.8815 5.76188 16.4399L5.21952 5.68555H14.7572L14.2459 16.4399C14.2226 16.889 13.8972 17.2033 13.4323 17.2033ZM12.3011 15.8936C12.5568 15.8936 12.7428 15.6915 12.7505 15.4071L12.983 7.55652C12.9907 7.27962 12.797 7.07007 12.5336 7.07007C12.2934 7.07007 12.0919 7.2871 12.0842 7.55652L11.8518 15.3997C11.844 15.6766 12.0377 15.8936 12.3011 15.8936ZM7.70661 15.8936C7.97004 15.8936 8.16374 15.6766 8.15599 15.3997L7.91581 7.55652C7.90806 7.2871 7.70661 7.07007 7.46643 7.07007C7.203 7.07007 7.0093 7.27962 7.01705 7.55652L7.24948 15.4071C7.25723 15.6915 7.44318 15.8936 7.70661 15.8936ZM10 15.8936C10.2557 15.8936 10.4726 15.6766 10.4726 15.4071V7.55652C10.4726 7.2871 10.2557 7.07007 10 7.07007C9.75207 7.07007 9.53512 7.2871 9.53512 7.55652V15.4071C9.53512 15.6766 9.75207 15.8936 10 15.8936Z" fill="#7B8E98"/>
</svg>
