<svg width="136" height="136" viewBox="0 0 68 68" fill="none" xmlns="http://www.w3.org/2000/svg">
<path fill-rule="evenodd" clip-rule="evenodd" d="M34.0001 0.666626C52.4096 0.666626 67.3334 15.5905 67.3334 34C67.3334 52.4095 52.4096 67.3333 34.0001 67.3333C15.5906 67.3333 0.666748 52.4095 0.666748 34C0.666748 15.5905 15.5906 0.666626 34.0001 0.666626ZM34 6.33335C18.7201 6.33335 6.33335 18.7201 6.33335 34C6.33335 49.2799 18.7201 61.6667 34 61.6667C49.2799 61.6667 61.6667 49.2799 61.6667 34C61.6667 18.7201 49.2799 6.33335 34 6.33335ZM29.6156 29.8132C29.6156 28.4435 28.54 27.3333 27.2132 27.3333C25.8864 27.3333 24.8108 28.4435 24.8108 29.8132L24.7934 30.2498C24.55 33.237 21.751 34.7729 16.4024 34.7729C15.0756 34.7729 14 35.8832 14 37.2528C14 38.6224 15.0756 39.7327 16.4024 39.7327C24.3095 39.7327 29.6156 36.544 29.6156 29.8132ZM45.5321 49.2227C42.4748 46.7755 38.4054 45.3978 34.0964 45.3978C29.676 45.3978 25.5093 46.848 22.4309 49.4103C21.356 50.3049 21.1873 51.9296 22.0539 53.0391C22.9206 54.1486 24.4945 54.3228 25.5693 53.4282C27.7387 51.6225 30.7942 50.559 34.0964 50.559C37.3178 50.559 40.3061 51.5708 42.4681 53.3014C43.5592 54.1747 45.1296 53.9697 45.9757 52.8434C46.8218 51.7171 46.6232 50.096 45.5321 49.2227ZM40.7868 27.3333C39.46 27.3333 38.3844 28.4436 38.3844 29.8132C38.3844 36.544 43.6906 39.7327 51.5976 39.7327C52.9244 39.7327 54 38.6224 54 37.2528C54 35.8832 52.9244 34.7729 51.5976 34.7729C45.9943 34.7729 43.1892 33.0872 43.1892 29.8132C43.1892 28.4436 42.1136 27.3333 40.7868 27.3333Z" fill="#ECEFF1"/>
</svg>
